# AST/ASF file generated using VICON BodyLanguage
# -----------------------------------------------
:version 1.10
:name VICON
:units
  mass 1.0
  length 0.45
  angle deg
:documentation
   .ast/.asf automatically generated from VICON data using
   VICON BodyBuilder and BodyLanguage model FoxedUp or BRILLIANT.MOD
:root
   order TX TY TZ RX RY RZ
   axis XYZ
   position 0 0 0  
   orientation 0 0 0 
:bonedata
  begin
     id 1 
     name lhipjoint
     direction 0.541323 -0.757556 0.364798 
     length 2.47576 
     axis 0 0 0  XYZ
  end
  begin
     id 2 
     name lfemur
     direction 0.34202 -0.939693 0  
     length 7.46493  
     axis 0 0 20  XYZ
    dof rx ry rz
    limits (-160.0 20.0)
           (-70.0 70.0)
           (-60.0 70.0)
  end
  begin
     id 3 
     name ltibia
     direction 0.34202 -0.939693 0   
     length 7.73805   
     axis 0 0 20   XYZ
    dof rx
    limits (-10.0 170.0)
  end
  begin
     id 4 
     name lfoot
     direction 0.107174 -0.294458 0.949636   
     length 2.25864   
     axis -90 7.62852e-016 20   XYZ
    dof rx rz
    limits (-45.0 90.0)
           (-70.0 20.0)
  end
  begin
     id 5 
     name ltoes
     direction 1.53606e-011 -4.21934e-011 1   
     length 1.12451   
     axis -90 7.62852e-016 20   XYZ
    dof rx
    limits (-90.0 20.0)
  end
  begin
     id 6 
     name rhipjoint
     direction -0.524745 -0.766967 0.36933   
     length 2.44538  
     axis 0 0 0  XYZ 
  end
  begin
     id 7 
     name rfemur
     direction -0.34202 -0.939693 0   
     length 7.61604   
     axis 0 0 -20   XYZ
    dof rx ry rz
    limits (-160.0 20.0)
           (-70.0 70.0)
           (-70.0 60.0)
  end
  begin
     id 8 
     name rtibia
     direction -0.34202 -0.939693 0   
     length 7.61056   
     axis 0 0 -20   XYZ
    dof rx
    limits (-10.0 170.0)
 end
 begin
     id 9 
     name rfoot
     direction -0.12616 -0.346623 0.929482   
     length 2.46372  
     axis -90 -7.62852e-016 -20   XYZ
    dof rx rz
    limits (-45.0 90.0)
           (-20.0 70.0)
  end
  begin
     id 10 
     name rtoes
     direction -1.53531e-011 -4.22004e-011 1   
     length 1.21611   
     axis -90 -7.62852e-016 -20   XYZ
    dof rx
    limits (-90.0 20.0)
  end
  begin
     id 11 
     name lowerback
     direction -0.000778023 0.997293 -0.0735223   
     length 2.06139   
     axis 0 0 0   XYZ
    dof rx ry rz
    limits (-20.0 45.0)
           (-30.0 30.0)
           (-30.0 30.0)
  end
  begin
     id 12 
     name upperback
     direction 0.0222598 0.999722 -0.0078355   
     length 2.06383   
     axis 0 0 0   XYZ
    dof rx ry rz
    limits (-20.0 45.0)
           (-30.0 30.0)
           (-30.0 30.0)
  end
  begin
     id 13 
     name thorax
     direction 0.0219654 0.999405 0.0265994   
     length 2.07163   
     axis 0 0 0   XYZ
    dof rx ry rz
    limits (-20.0 45.0)
           (-30.0 30.0)
           (-30.0 30.0)
  end
  begin
     id 14 
     name lowerneck
     direction 0.0213282 0.988147 0.15202   
     length 1.75969   
     axis 0 0 0   XYZ
    dof rx ry rz
    limits (-20.0 45.0)
           (-30.0 30.0)
           (-30.0 30.0)
  end
  begin
     id 15 
     name upperneck
     direction -0.0546456 0.982624 -0.177379   
     length 1.79244   
     axis 0 0 0   XYZ
    dof rx ry rz
    limits (-20.0 45.0)
           (-30.0 30.0)
           (-30.0 30.0)
  end
  begin
     id 16
     name head
     direction -0.0199987 0.996855 -0.076686  
     length 1.80555  
     axis 0 0 0   XYZ
    dof rx ry rz
    limits (-20.0 45.0)
           (-30.0 30.0)
           (-30.0 30.0)
  end
  begin
     id 17 
     name lclavicle
     direction 0.929565 0.363219 -0.063096  
     length 3.55722  
     axis 0 0 0   XYZ
    dof ry rz
    limits (-20.0 10.0)
           (0.0 20.0)
  end
  begin
     id 18 
     name lhumerus
     direction 1 -4.48993e-011 -2.36203e-027   
     length 4.92785   
     axis 180 -30 -90   XYZ
    dof rx ry rz
    limits (-60.0 90.0)
           (-90.0 90.0)
           (-90.0 90.0)
  end
  begin
     id 19
     name lradius
     direction 1 -4.48947e-011 2.02997e-027   
     length 3.44052   
     axis 180 -30 -90   XYZ
    dof rx
    limits (-10.0 170.0)
  end
  begin
     id 20
     name lwrist
     direction 1 -4.48962e-011 1.45991e-027   
     length 1.72026   
     axis 1.49639e-024 90 90   XYZ
    dof ry
    limits (-180.0 0.0)
 end
  begin
     id 21 
     name lhand
     direction 1 -4.48984e-011 2.91906e-027   
     length 0.654326   
     axis -1.863e-015 90 90   XYZ
    dof rx rz
    limits (-90.0 90.0)
           (-45.0 45.0)
  end
  begin
     id 22 
     name lfingers
     direction 1 -4.48961e-011 5.83968e-027   
     length 0.527534   
     axis -3.72598e-015 90 90   XYZ
    dof rx
    limits (0.0 90.0)
  end
  begin
     id 23
     name lthumb
     direction 0.707107 -6.34963e-011 0.707107   
     length 0.757437   
     axis -90 45 -6.68868e-015   XYZ
    dof rx rz
    limits (-45.0 45.0)
           (-45.0 45.0)
  end
  begin
     id 24 
     name rclavicle
     direction -0.902944 0.422599 -0.0781198   
     length 3.54432  
     axis 0 0 0   XYZ 
    dof ry rz
    limits (-10.0 20.0)
           (-20.0 0.0)
  end
  begin
     id 25 
     name rhumerus
     direction -1 -4.48953e-011 -4.75835e-028  
     length 5.09181   
     axis 180 30 90   XYZ
    dof rx ry rz
    limits (-90.0 60.0)
           (-90.0 90.0)
           (-90.0 90.0)
  end
  begin
     id 26 
     name rradius
     direction -1 -4.48986e-011 -3.25889e-027   
     length 3.49865   
     axis 180 30 90   XYZ
    dof rx
    limits (-10.0 170.0)
  end
  begin
     id 27 
     name rwrist
     direction -1 -4.48963e-011 1.45989e-027   
     length 1.74933   
     axis 1.49639e-024 -90 -90   XYZ
    dof ry
    limits (-180.0 0.0)
  end
  begin
     id 28
     name rhand
     direction -1 -4.49003e-011 2.91844e-027   
     length 0.66641   
     axis -1.863e-015 -90 -90   XYZ
    dof rx rz
    limits (-90.0 90.0)
           (-45.0 45.0)
  end
  begin
     id 29
     name rfingers
     direction -1 -4.48973e-011 5.83886e-027   
     length 0.537277   
     axis -3.72598e-015 -90 -90   XYZ
    dof rx
    limits (0.0 90.0)
  end
  begin
     id 30
     name rthumb
     direction -0.707107 -6.34976e-011 0.707107   
     length 0.771425   
     axis -90 -45 6.68868e-015   XYZ
    dof rx rz
    limits (-45.0 45.0)
           (-45.0 45.0)
  end
:hierarchy
  begin
    root lhipjoint rhipjoint lowerback
    lhipjoint lfemur
    lfemur ltibia
    ltibia lfoot
    lfoot ltoes
    rhipjoint rfemur
    rfemur rtibia
    rtibia rfoot
    rfoot rtoes
    lowerback upperback
    upperback thorax
    thorax lowerneck lclavicle rclavicle
    lowerneck upperneck
    upperneck head
    lclavicle lhumerus
    lhumerus lradius
    lradius lwrist
    lwrist lhand lthumb
    lhand lfingers
    rclavicle rhumerus
    rhumerus rradius
    rradius rwrist
    rwrist rhand rthumb
    rhand rfingers
  end

#!OML:ASF H:\LiuWeirdWalks\Patient Classification 1\Patient 1\Session 1\male.ASF
:FULLY-SPECIFIED
:DEGREES
1
root -0.707242 17.057 -26.2689 7.82246 1.09435 -8.44476
lowerback 9.47838 0.221231 8.89568
upperback 0.970083 1.47733 5.53268
thorax -4.24235 0.618157 0.613586
lowerneck -16.8822 2.54516 11.7015
upperneck 5.0899 2.01183 -11.5361
head 4.50463 0.521623 -5.37632
rclavicle -2.38542e-015 1.11319e-014
rhumerus -38.5408 -9.47807 -77.353
rradius 29.3112
rwrist -3.76318
rhand -20.7459 -6.8159
rfingers 7.12502
rthumb 5.61965 -36.7214
lclavicle -2.38542e-015 1.11319e-014
lhumerus -36.8206 -15.7572 92.2457
lradius 47.5931
lwrist 12.1034
lhand -10.6187 -2.48907
lfingers 7.12502
lthumb 15.3877 26.9183
rfemur 6.49892 1.80935 32.2509
rtibia 17.906
rfoot -20.1942 -30.7516
rtoes -0.624638
lfemur -46.6654 -0.907414 -3.65919
ltibia 31.7183
lfoot -9.24668 10.8881
ltoes -17.2887
2
root -0.694729 17.0115 -26.1347 7.94545 1.54664 -8.56194
lowerback 9.40488 -0.0754206 8.6354
upperback 1.50363 1.01556 6.02021
thorax -3.67614 0.424305 1.32555
lowerneck -18.6249 3.01591 10.389
upperneck 5.05977 2.74415 -11.2916
head 4.83825 0.817256 -5.01565
rclavicle -7.55382e-015 1.27222e-014
rhumerus -36.5823 -7.90808 -77.9346
rradius 28.5618
rwrist -3.56722
rhand -20.6995 -6.79948
rfingers 7.12502
rthumb 5.66447 -36.7038
lclavicle -7.55382e-015 1.27222e-014
lhumerus -35.8654 -13.8355 92.2559
lradius 47.7401
lwrist 11.825
lhand -10.7558 -2.676
lfingers 7.12502
lthumb 15.2557 26.7414
rfemur 7.064 1.67883 32.4949
rtibia 17.4541
rfoot -20.3038 -31.1747
rtoes -0.603728
lfemur -47.3665 -1.06072 -3.62778
ltibia 32.7933
lfoot -8.97599 10.2356
ltoes -17.53
3
root -0.681913 16.9637 -25.9981 8.07501 1.99467 -8.67603
lowerback 9.39039 -0.158719 8.57374
upperback 1.76718 0.880511 6.2601
thorax -3.40053 0.371713 1.62708
lowerneck -19.6179 3.19907 9.58149
upperneck 4.88054 3.07249 -11.1561
head 4.96066 0.941554 -4.80558
rclavicle 1.78906e-014 7.95139e-015
rhumerus -35.3999 -7.01477 -78.4594
rradius 27.9557
rwrist -3.30725
rhand -20.6357 -6.66488
rfingers 7.12502
rthumb 5.72612 -36.5675
lclavicle 1.78906e-014 7.95139e-015
lhumerus -35.4452 -12.7551 92.3406
lradius 47.9175
lwrist 11.635
lhand -10.8758 -2.84855
lfingers 7.12502
lthumb 15.1401 26.5776
rfemur 7.45057 1.55674 32.7389
rtibia 17.3756
rfoot -20.6614 -31.6288
rtoes -0.625651
lfemur -48.2542 -1.11952 -3.66585
ltibia 34.3986
lfoot -8.81447 9.61693
ltoes -17.6815
4
root -0.666916 16.8941 -25.8604 8.21475 2.44612 -8.78592
lowerback 9.42417 -0.0216975 8.65112
upperback 1.68284 1.084 6.24855
thorax -3.49988 0.46783 1.54804
lowerneck -19.4932 3.07707 9.37235
upperneck 4.4605 2.93894 -11.1373
head 4.79344 0.879753 -4.77486
rclavicle -1.63003e-014 -9.06458e-014
rhumerus -35.1587 -6.84113 -78.9767
rradius 27.5301
rwrist -2.98527
rhand -20.5634 -6.4595
rfingers 7.12502
rthumb 5.79588 -36.3602
lclavicle -1.63003e-014 -9.06458e-014
lhumerus -35.7429 -12.5499 92.4673
lradius 48.1545
lwrist 11.5372
lhand -10.9756 -3.04347
lfingers 7.12502
lthumb 15.044 26.3899
rfemur 7.92459 1.4423 32.9825
rtibia 17.1473
rfoot -20.9722 -32.0617
rtoes -0.69655
lfemur -49.1613 -1.10181 -3.76328
ltibia 36.0181
lfoot -8.49665 9.0154
ltoes -17.7635
5
root -0.653277 16.8425 -25.7196 8.3651 2.90779 -8.87567
lowerback 9.46229 0.121552 8.71586
upperback 1.5892 1.29549 6.22044
thorax -3.61044 0.567282 1.45721
lowerneck -19.39 2.94606 9.10303
upperneck 4.00667 2.79753 -11.0625
head 4.61679 0.816792 -4.71642
rclavicle 1.19271e-014 1.27222e-014
rhumerus -34.9364 -6.56503 -79.5549
rradius 27.1923
rwrist -2.75926
rhand -20.478 -6.25429
rfingers 7.12502
rthumb 5.87834 -36.1527
lclavicle 1.19271e-014 1.27222e-014
lhumerus -36.0512 -12.2917 92.5524
lradius 48.3895
lwrist 11.4485
lhand -11.0942 -3.27457
lfingers 7.12502
lthumb 14.9298 26.1674
rfemur 8.37851 1.32977 33.2139
rtibia 16.9212
rfoot -21.2887 -32.4832
rtoes -0.805968
lfemur -50.0597 -1.04166 -3.92611
ltibia 37.8102
lfoot -8.30852 8.49141
ltoes -17.7448
6
root -0.639244 16.7894 -25.5773 8.53333 3.38015 -8.95045
lowerback 9.51764 0.270519 8.77463
upperback 1.48291 1.51684 6.17228
thorax -3.74254 0.670472 1.34683
lowerneck -19.3573 2.78154 8.74087
upperneck 3.57747 2.62143 -10.9015
head 4.45277 0.739034 -4.61852
rclavicle 2.46493e-014 4.6118e-014
rhumerus -34.7267 -6.18949 -80.2004
rradius 26.9533
rwrist -2.67478
rhand -20.3633 -6.06392
rfingers 7.12502
rthumb 5.98909 -35.9593
lclavicle 2.46493e-014 4.6118e-014
lhumerus -36.3663 -11.9869 92.5827
lradius 48.6318
lwrist 11.3678
lhand -11.2232 -3.55485
lfingers 7.12502
lthumb 14.8054 25.8963
rfemur 8.80753 1.22178 33.4401
rtibia 16.7182
rfoot -21.6039 -32.9062
rtoes -0.98096
lfemur -51.0324 -0.960073 -4.12556
ltibia 39.7771
lfoot -8.26711 8.0595
ltoes -17.6109
7
root -0.62485 16.7353 -25.4333 8.72719 3.90446 -8.99229
lowerback 9.54839 0.409777 8.82635
upperback 1.37513 1.72034 6.09859
thorax -3.86173 0.764891 1.21534
lowerneck -19.4215 2.62274 8.37862
upperneck 3.1659 2.44816 -10.7413
head 4.31056 0.660349 -4.52119
rclavicle -9.54166e-015 -1.51076e-014
rhumerus -34.4992 -5.73015 -80.9136
rradius 26.8081
rwrist -2.71952
rhand -20.2316 -5.9295
rfingers 7.12502
rthumb 6.11624 -35.8212
lclavicle -9.54166e-015 -1.51076e-014
lhumerus -36.6751 -11.6337 92.5536
lradius 48.9033
lwrist 11.3381
lhand -11.3655 -3.81467
lfingers 7.12502
lthumb 14.6684 25.6465
rfemur 9.29686 1.06445 33.6471
rtibia 16.3455
rfoot -21.7836 -33.3194
rtoes -1.23795
lfemur -52.0573 -0.9124 -4.36322
ltibia 41.7955
lfoot -8.32135 7.71363
ltoes -17.4154
8
root -0.609343 16.6802 -25.2861 8.93105 4.43039 -9.01243
lowerback 9.58557 0.554383 8.879
upperback 1.26431 1.93084 5.99827
thorax -3.9855 0.862033 1.05397
lowerneck -19.5241 2.44945 8.02846
upperneck 2.76627 2.2535 -10.596
head 4.17735 0.569893 -4.43307
rclavicle 1.23246e-014 -1.59028e-015
rhumerus -34.279 -5.19715 -81.6792
rradius 26.7614
rwrist -2.90183
rhand -20.0652 -5.82493
rfingers 7.12502
rthumb 6.27686 -35.7119
lclavicle 1.23246e-014 -1.59028e-015
lhumerus -37 -11.2527 92.4716
lradius 49.2276
lwrist 11.384
lhand -11.5212 -3.99712
lfingers 7.12502
lthumb 14.5183 25.4749
rfemur 9.78848 0.880383 33.8339
rtibia 15.9702
rfoot -21.916 -33.7371
rtoes -1.60999
lfemur -53.114 -0.897088 -4.6066
ltibia 43.8761
lfoot -8.48966 7.47567
ltoes -17.1654
9
root -0.593682 16.6237 -25.136 9.14516 4.97848 -9.01292
lowerback 9.60718 0.696696 8.92412
upperback 1.15043 2.13473 5.88048
thorax -4.10251 0.955714 0.879027
lowerneck -19.661 2.28241 7.70733
upperneck 2.38998 2.06534 -10.4979
head 4.05947 0.479685 -4.36463
rclavicle 2.46493e-014 -4.92986e-014
rhumerus -34.0592 -4.58095 -82.4877
rradius 26.7956
rwrist -3.17407
rhand -19.8849 -5.745
rfingers 7.12502
rthumb 6.45089 -35.6268
lclavicle 2.46493e-014 -4.92986e-014
lhumerus -37.3458 -10.845 92.3423
lradius 49.6042
lwrist 11.4879
lhand -11.7039 -4.02133
lfingers 7.12502
lthumb 14.3423 25.4633
rfemur 10.2921 0.674012 34.0207
rtibia 15.567
rfoot -21.9749 -34.1825
rtoes -2.08139
lfemur -54.1881 -0.927156 -4.84672
ltibia 45.9497
lfoot -8.69587 7.3183
ltoes -16.9217
10
root -0.576712 16.5666 -24.9814 9.36027 5.5103 -8.99277
lowerback 9.60768 0.851903 8.96686
upperback 1.04377 2.35041 5.74065
thorax -4.19732 1.05554 0.680859
lowerneck -19.797 2.08884 7.39697
upperneck 2.03808 1.8437 -10.4161
head 3.94714 0.372558 -4.30645
rclavicle -3.45885e-014 -4.21423e-014
rhumerus -33.8528 -3.88156 -83.3296
rradius 26.9187
rwrist -3.52363
rhand -19.6977 -5.64091
rfingers 7.12502
rthumb 6.63165 -35.5171
lclavicle -3.45885e-014 -4.21423e-014
lhumerus -37.7019 -10.4201 92.1678
lradius 50.0457
lwrist 11.688
lhand -11.8778 -3.90668
lfingers 7.12502
lthumb 14.1747 25.5897
rfemur 10.8421 0.441316 34.1823
rtibia 15.1072
rfoot -21.9832 -34.6135
rtoes -2.62299
lfemur -55.2224 -0.989458 -5.08667
ltibia 47.9558
lfoot -8.8887 7.23033
ltoes -16.7442
